<svg width="45" height="53" viewBox="0 0 45 53" fill="none" xmlns="http://www.w3.org/2000/svg">
<path d="M38.2119 52.3141C39.6859 52.3158 41.1143 52.0124 42.2492 51.4565C42.888 51.1434 43.416 50.759 43.803 50.3251C44.19 49.8913 44.4284 49.4166 44.5046 48.9282C44.5808 48.4398 44.4932 47.9473 44.2469 47.4789C44.0006 47.0105 43.6004 46.5755 43.0693 46.1987L14.8085 26.2116L42.0599 6.18719C42.5839 5.80577 42.9753 5.36689 43.2114 4.89577C43.4475 4.42466 43.5238 3.93061 43.4359 3.44201C43.3479 2.95342 43.0975 2.47991 42.699 2.04871C42.3005 1.61751 41.7617 1.23711 41.1137 0.92939C40.461 0.589921 39.6967 0.333864 38.8687 0.17729C38.0406 0.0207152 37.1668 -0.0329953 36.302 0.0195264C35.4372 0.0720481 34.6001 0.229669 33.8432 0.482498C33.0863 0.735327 32.426 1.0779 31.9038 1.48873L1.43516 23.8624C0.507343 24.5296 0.000125885 25.3665 0.000125885 26.2302C0.000125885 27.0939 0.507343 27.9309 1.43516 28.5981L32.9761 50.9717C33.609 51.423 34.4128 51.7797 35.3225 52.013C36.2323 52.2462 37.2222 52.3494 38.2119 52.3141Z" fill="white"/>
</svg>
